<svg width="50" height="50" viewBox="0 0 50 50" fill="none" xmlns="http://www.w3.org/2000/svg">
<path fill-rule="evenodd" clip-rule="evenodd" d="M49 25L48.9994 27.4L48.9976 28.394L48.9946 29.1566L48.9904 29.7993L48.985 30.3654L48.9784 30.877L48.9706 31.3472L48.9616 31.7846L48.9514 32.1951L48.94 32.5831L48.9274 32.9519L48.9135 33.3039L48.8985 33.6411L48.8823 33.9653L48.8649 34.2777L48.8462 34.5795L48.8264 34.8716L48.8053 35.1548L48.7831 35.4299L48.7596 35.6974L48.7349 35.9578L48.709 36.2116L48.6819 36.4593L48.6536 36.7011L48.624 36.9375L48.5932 37.1687L48.5612 37.395L48.528 37.6167L48.4936 37.8339L48.4579 38.0468L48.421 38.2557L48.3829 38.4607L48.3435 38.6619L48.3029 38.8596L48.2611 39.0538L48.218 39.2446L48.1737 39.4323L48.1281 39.6168L48.0813 39.7983L48.0333 39.9768L47.9839 40.1525L47.9334 40.3255L47.8815 40.4957L47.8284 40.6634L47.7741 40.8285L47.7184 40.9911L47.6615 41.1512L47.6033 41.309L47.5438 41.4645L47.483 41.6177L47.421 41.7687L47.3576 41.9175L47.293 42.0642L47.227 42.2088L47.1597 42.3513L47.0911 42.4918L47.0212 42.6303L46.95 42.7669L46.8774 42.9015L46.8035 43.0342L46.7283 43.1651L46.6516 43.2942L46.5737 43.4214L46.4944 43.5468L46.4136 43.6705L46.3316 43.7924L46.2481 43.9126L46.1632 44.0312L46.0769 44.148L45.9893 44.2632L45.9002 44.3767L45.8096 44.4886L45.7176 44.5989L45.6242 44.7076L45.5293 44.8147L45.4329 44.9203L45.3351 45.0243L45.2358 45.1268L45.1349 45.2278L45.0326 45.3273L44.9286 45.4252L44.8232 45.5217L44.7162 45.6167L44.6076 45.7102L44.4974 45.8023L44.3857 45.893L44.2723 45.9822L44.1572 46.07L44.0405 46.1564L43.9221 46.2414L43.8021 46.325L43.6803 46.4072L43.5567 46.488L43.4314 46.5674L43.3044 46.6455L43.1755 46.7222L43.0447 46.7976L42.9121 46.8716L42.7777 46.9443L42.6413 47.0156L42.5029 47.0856L42.3626 47.1543L42.2202 47.2217L42.0758 47.2878L41.9293 47.3525L41.7807 47.416L41.6298 47.4782L41.4768 47.539L41.3215 47.5986L41.1639 47.6569L41.0039 47.7139L40.8415 47.7697L40.6766 47.8241L40.5092 47.8773L40.3391 47.9293L40.1664 47.98L39.9909 48.0294L39.8126 48.0775L39.6313 48.1245L39.4471 48.1701L39.2597 48.2145L39.0691 48.2577L38.8752 48.2997L38.6778 48.3403L38.4769 48.3798L38.2722 48.418L38.0636 48.455L37.851 48.4908L37.6341 48.5253L37.4129 48.5586L37.1869 48.5907L36.9561 48.6216L36.7202 48.6512L36.4787 48.6797L36.2315 48.7069L35.9782 48.7329L35.7183 48.7577L35.4515 48.7812L35.177 48.8036L34.8945 48.8248L34.6031 48.8447L34.3021 48.8634L33.9906 48.881L33.6674 48.8973L33.3312 48.9124L32.9805 48.9263L32.6132 48.939L32.2268 48.9505L31.8182 48.9608L31.3831 48.9699L30.9158 48.9778L30.408 48.9845L29.8469 48.99L29.2114 48.9943L28.4609 48.9974L27.4937 48.9993L25.6773 49L22.6975 48.9995L21.6742 48.9978L20.8989 48.9949L20.2486 48.9908L19.6774 48.9855L19.1621 48.979L18.6889 48.9713L18.2492 48.9624L17.8367 48.9522L17.447 48.9409L17.0768 48.9284L16.7236 48.9147L16.3852 48.8998L16.06 48.8836L15.7467 48.8663L15.4441 48.8478L15.1513 48.828L14.8674 48.8071L14.5917 48.7849L14.3237 48.7615L14.0627 48.7369L13.8084 48.7111L13.5602 48.6841L13.3179 48.6559L13.0811 48.6264L12.8495 48.5957L12.6228 48.5638L12.4008 48.5307L12.1832 48.4964L11.97 48.4608L11.7608 48.424L11.5555 48.386L11.3539 48.3467L11.156 48.3062L10.9615 48.2645L10.7704 48.2215L10.5825 48.1773L10.3978 48.1318L10.2161 48.0851L10.0373 48.0371L9.86135 47.9879L9.68819 47.9374L9.51772 47.8857L9.34987 47.8327L9.18458 47.7784L9.02178 47.7229L8.86142 47.6661L8.70343 47.608L8.54776 47.5486L8.39437 47.4879L8.24321 47.426L8.09422 47.3627L7.94738 47.2982L7.80264 47.2323L7.65995 47.1651L7.5193 47.0967L7.38063 47.0269L7.24392 46.9557L7.10913 46.8833L6.97624 46.8095L6.84522 46.7343L6.71604 46.6578L6.58867 46.5799L6.46309 46.5007L6.33928 46.4201L6.21721 46.3382L6.09686 46.2548L5.97821 46.17L5.86124 46.0839L5.74594 45.9963L5.63227 45.9073L5.52024 45.8169L5.40981 45.725L5.30098 45.6317L5.19372 45.5369L5.08803 45.4407L4.98388 45.343L4.88127 45.2437L4.78018 45.143L4.6806 45.0408L4.58252 44.937L4.48592 44.8317L4.39079 44.7248L4.29713 44.6163L4.20492 44.5063L4.11416 44.3946L4.02482 44.2814L3.93691 44.1664L3.85041 44.0499L3.76532 43.9316L3.68162 43.8117L3.59932 43.69L3.5184 43.5666L3.43884 43.4415L3.36066 43.3145L3.28384 43.1858L3.20836 43.0552L3.13424 42.9228L3.06145 42.7884L2.99 42.6522L2.91988 42.514L2.85108 42.3738L2.7836 42.2316L2.71743 42.0874L2.65256 41.941L2.589 41.7926L2.52673 41.6419L2.46576 41.4891L2.40607 41.334L2.34767 41.1765L2.29055 41.0167L2.23471 40.8545L2.18014 40.6898L2.12683 40.5226L2.07479 40.3528L2.02401 40.1802L1.97449 40.005L1.92623 39.8269L1.87922 39.6459L1.83345 39.4619L1.78894 39.2747L1.74566 39.0844L1.70363 38.8908L1.66284 38.6937L1.62328 38.493L1.58496 38.2886L1.54786 38.0804L1.512 37.8681L1.47736 37.6516L1.44395 37.4307L1.41177 37.2051L1.3808 36.9747L1.35105 36.7391L1.32253 36.4982L1.29522 36.2515L1.26912 35.9986L1.24424 35.7393L1.22057 35.473L1.19811 35.1992L1.17687 34.9173L1.15683 34.6267L1.138 34.3265L1.12038 34.0158L1.10396 33.6936L1.08875 33.3585L1.07474 33.009L1.06194 32.6431L1.05034 32.2583L1.03994 31.8517L1.03074 31.4189L1.02275 30.9544L1.01596 30.4501L1.01037 29.8939L1.00597 29.2655L1.00278 28.5265L1.00079 27.584L1 25.9578L1.00041 22.7994L1.00202 21.7439L1.00483 20.9552L1.00884 20.2971L1.01405 19.7206L1.02046 19.2014L1.02807 18.7253L1.03688 18.2831L1.0469 17.8686L1.05811 17.4773L1.07053 17.1057L1.08416 16.7511L1.09898 16.4116L1.11502 16.0855L1.13226 15.7713L1.1507 15.4678L1.17035 15.1743L1.19122 14.8897L1.21329 14.6134L1.23657 14.3447L1.26106 14.0832L1.28677 13.8284L1.3137 13.5797L1.34184 13.337L1.37119 13.0997L1.40177 12.8677L1.43357 12.6406L1.46659 12.4183L1.50083 12.2004L1.53631 11.9868L1.57301 11.7773L1.61094 11.5717L1.6501 11.3698L1.6905 11.1716L1.73214 10.9769L1.77502 10.7855L1.81914 10.5974L1.86451 10.4124L1.91112 10.2304L1.95898 10.0514L2.0081 9.87525L2.05848 9.70187L2.11012 9.53118L2.16302 9.36313L2.21719 9.19764L2.27263 9.03464L2.32934 8.87408L2.38733 8.71591L2.44661 8.56006L2.50717 8.40649L2.56902 8.25515L2.63217 8.10599L2.69662 7.95898L2.76238 7.81407L2.82944 7.67123L2.89782 7.53041L2.96752 7.39158L3.03855 7.25472L3.11091 7.11978L3.18461 6.98674L3.25965 6.85557L3.33604 6.72624L3.41379 6.59873L3.49291 6.47301L3.57339 6.34906L3.65526 6.22685L3.73851 6.10636L3.82315 5.98758L3.9092 5.87048L3.99666 5.75504L4.08554 5.64125L4.17585 5.52908L4.2676 5.41853L4.3608 5.30957L4.45546 5.20219L4.55159 5.09637L4.6492 4.9921L4.7483 4.88937L4.84891 4.78816L4.95103 4.68846L5.05469 4.59026L5.15988 4.49354L5.26664 4.3983L5.37497 4.30452L5.48489 4.21219L5.59641 4.12131L5.70955 4.03186L5.82433 3.94384L5.94077 3.85723L6.05888 3.77203L6.17869 3.68822L6.3002 3.60581L6.42346 3.52477L6.54847 3.44511L6.67527 3.36682L6.80387 3.28989L6.93431 3.21431L7.0666 3.14008L7.20078 3.06718L7.33687 2.99563L7.47491 2.9254L7.61493 2.85649L7.75697 2.7889L7.90105 2.72263L8.04722 2.65766L8.19552 2.59399L8.34598 2.53162L8.49866 2.47055L8.65359 2.41076L8.81084 2.35226L8.97044 2.29504L9.13246 2.23909L9.29695 2.18442L9.46397 2.13101L9.6336 2.07887L9.8059 2.02799L9.98094 1.97837L10.1588 1.93001L10.3396 1.8829L10.5234 1.83703L10.7102 1.79242L10.9003 1.74905L11.0937 1.70691L11.2905 1.66602L11.4909 1.62637L11.695 1.58794L11.9029 1.55075L12.1149 1.51479L12.331 1.48006L12.5516 1.44655L12.7767 1.41427L13.0068 1.3832L13.2419 1.35336L13.4824 1.32474L13.7287 1.29733L13.981 1.27114L14.2398 1.24616L14.5055 1.22239L14.7787 1.19984L15.0599 1.1785L15.3498 1.15836L15.6492 1.13944L15.959 1.12172L16.2803 1.1052L16.6143 1.0899L16.9626 1.07579L17.3271 1.06289L17.7102 1.0512L18.1151 1.0407L18.5456 1.03141L19.0073 1.02332L19.508 1.01644L20.0595 1.01075L20.6811 1.00626L21.409 1.00297L22.3287 1.00089L23.8269 1L27.0938 1.00031L28.1849 1.00183L28.9877 1.00454L29.6539 1.00845L30.2358 1.01357L30.7589 1.01988L31.2381 1.0274L31.6827 1.03612L32.0992 1.04603L32.4923 1.05716L32.8654 1.06948L33.2212 1.08301L33.5618 1.09774L33.889 1.11368L34.2041 1.13082L34.5083 1.14917L34.8027 1.16873L35.088 1.18949L35.3649 1.21147L35.6341 1.23465L35.8962 1.25905L36.1515 1.28466L36.4006 1.31149L36.6439 1.33953L36.8815 1.36879L37.114 1.39927L37.3414 1.43097L37.5641 1.4639L37.7824 1.49804L37.9963 1.53342L38.2062 1.57002L38.4121 1.60785L38.6142 1.64692L38.8127 1.68722L39.0077 1.72876L39.1993 1.77154L39.3877 1.81556L39.573 1.86083L39.7552 1.90734L39.9344 1.95511L40.1108 2.00413L40.2844 2.0544L40.4553 2.10594L40.6236 2.15874L40.7892 2.21281L40.9524 2.26815L41.1132 2.32476L41.2715 2.38265L41.4276 2.44182L41.5813 2.50228L41.7328 2.56403L41.8822 2.62708L42.0294 2.69142L42.1744 2.75707L42.3174 2.82404L42.4584 2.89231L42.5974 2.96191L42.7344 3.03283L42.8695 3.10508L43.0027 3.17867L43.134 3.25361L43.2635 3.32989L43.3912 3.40753L43.517 3.48654L43.6411 3.56692L43.7635 3.64867L43.8841 3.73181L44.003 3.81635L44.1202 3.90228L44.2358 3.98963L44.3497 4.0784L44.462 4.16859L44.5727 4.26023L44.6818 4.35331L44.7893 4.44785L44.8952 4.54386L44.9996 4.64135L45.1025 4.74033L45.2038 4.84082L45.3036 4.94282L45.4019 5.04636L45.4988 5.15143L45.5941 5.25807L45.688 5.36627L45.7805 5.47606L45.8715 5.58745L45.961 5.70047L46.0492 5.81512L46.1359 5.93142L46.2212 6.0494L46.3051 6.16907L46.3876 6.29045L46.4688 6.41356L46.5486 6.53844L46.627 6.66509L46.704 6.79355L46.7797 6.92383L46.854 7.05598L46.927 7.19001L46.9987 7.32595L47.069 7.46383L47.138 7.60369L47.2057 7.74557L47.2721 7.88948L47.3372 8.03549L47.401 8.18361L47.4634 8.3339L47.5246 8.4864L47.5845 8.64116L47.6431 8.79821L47.7004 8.95763L47.7565 9.11945L47.8112 9.28374L47.8647 9.45056L47.917 9.61998L47.968 9.79206L48.0177 9.96688L48.0662 10.1445L48.1134 10.3251L48.1593 10.5086L48.204 10.6952L48.2475 10.885L48.2897 11.0781L48.3307 11.2747L48.3705 11.4748L48.409 11.6786L48.4463 11.8862L48.4824 12.0978L48.5172 12.3136L48.5508 12.5338L48.5832 12.7586L48.6143 12.9882L48.6443 13.223L48.673 13.463L48.7005 13.7088L48.7268 13.9607L48.7519 14.2189L48.7757 14.4841L48.7984 14.7567L48.8198 15.0372L48.84 15.3264L48.8591 15.625L48.8769 15.9339L48.8935 16.2542L48.9089 16.5872L48.9231 16.9343L48.9361 17.2974L48.9479 17.679L48.9585 18.0819L48.9679 18.5102L48.976 18.9692L48.983 19.4664L48.9888 20.0133L48.9934 20.6283L48.9968 21.3457L48.999 22.2442L48.9999 23.6455L49 25Z" fill="currentColor" stroke="var(--custom_card_background)" stroke-width="1.5"/>
</svg>
