<svg width="50" height="51" viewBox="0 0 50 51" fill="none" xmlns="http://www.w3.org/2000/svg">
<path fill-rule="evenodd" clip-rule="evenodd" d="M44.5054 12.6123C45.3929 13.4239 46.0114 14.4808 46.2801 15.6449L48.8944 26.9715C49.1719 28.1737 49.0627 29.4313 48.5819 30.5694L44.2836 40.7453C43.7763 41.9463 42.8827 42.9494 41.7406 43.5999L32.3929 48.9242C31.2508 49.5748 29.9234 49.8367 28.6155 49.6697L17.5337 48.2541C16.2943 48.0958 15.1357 47.5603 14.2192 46.7222L5.58352 38.8252C4.69601 38.0136 4.07745 36.9567 3.80877 35.7926L1.19447 24.466C0.916995 23.2638 1.02622 22.0062 1.50694 20.8681L5.80525 10.6922C6.31256 9.49123 7.20616 8.48814 8.34832 7.83758L17.6959 2.51327C18.8381 1.86271 20.1654 1.60078 21.4734 1.76785L32.5552 3.18339C33.7946 3.3417 34.9531 3.87718 35.8697 4.71534L44.5054 12.6123Z" fill="currentColor" stroke="var(--custom_card_background)" stroke-width="1.5"/>
</svg>
