<svg width="48" height="48" viewBox="0 0 48 48" fill="none" xmlns="http://www.w3.org/2000/svg">
<path d="M20.7473 2.96089C22.0086 0.013037 25.9914 0.0130359 27.2527 2.96089L30.9417 11.5827C31.6709 13.2868 33.2261 14.4749 35.0385 14.6742L44.0493 15.6649C47.0808 15.9983 48.3973 19.9851 46.0544 22.1847L39.3235 28.504C37.9847 29.761 37.3989 31.6551 37.7692 33.4737L39.6492 42.7078C40.3103 45.9552 36.9993 48.3102 34.3917 46.7434L26.5428 42.0272C24.9704 41.0824 23.0296 41.0824 21.4573 42.0272L13.6083 46.7434C11.0007 48.3102 7.68967 45.9552 8.35082 42.7078L10.2308 33.4737C10.6011 31.6551 10.0153 29.761 8.67648 28.504L1.94558 22.1847C-0.397271 19.9851 0.91923 15.9983 3.95066 15.6649L12.9615 14.6742C14.7739 14.4749 16.3291 13.2868 17.0583 11.5827L20.7473 2.96089Z" fill="currentColor" stroke="var(--custom_card_background)" stroke-width="1.5"/>
</svg>
